<svg width="1000" height="1000" viewBox="0 0 1000 1000" xmlns="http://www.w3.org/2000/svg"><defs/><path fill="#87bba2" transform="matrix(0.6969511761391957 0 0 0.6969511761391958 8.557498954224064 31.123114210504596)" d="M 697.18189140185 259.269574398 L 697.18189140185 443.669574398 C 697.18189140185 452.469574398 704.28189140185 459.569574398 713.08189140185 459.569574398 L 713.08189140185 275.169574398 C 713.08189140185 266.369574398 705.98189140185 259.269574398 697.18189140185 259.269574398 Z"/><path fill="#87bba2" transform="matrix(0.6969511761391957 0 0 0.6969511761391958 8.557498954224064 31.123114210504596)" d="M 811.18189140185 299.769574398 L 811.18189140185 403.269574398 C 811.18189140185 412.069574398 818.28189140185 419.169574398 827.08189140185 419.169574398 L 827.08189140185 315.569574398 C 827.08189140185 306.869574398 819.98189140185 299.769574398 811.18189140185 299.769574398 Z"/><path fill="#87bba2" transform="matrix(0.6969511761391957 0 0 0.6969511761391958 8.557498954224064 31.123114210504596)" d="M 725.68189140185 308.169574398 L 725.68189140185 394.769574398 C 725.68189140185 403.569574398 732.78189140185 410.669574398 741.58189140185 410.669574398 L 741.58189140185 324.069574398 C 741.58189140185 315.269574398 734.48189140185 308.169574398 725.68189140185 308.169574398 Z"/><path fill="#87bba2" transform="matrix(0.6969511761391957 0 0 0.6969511761391958 8.557498954224064 31.123114210504596)" d="M 754.18189140185 286.969574398 L 754.18189140185 415.969574398 C 754.18189140185 424.769574398 761.28189140185 431.869574398 770.08189140185 431.869574398 L 770.08189140185 302.869574398 C 770.08189140185 294.069574398 762.98189140185 286.969574398 754.18189140185 286.969574398 Z"/><path fill="#87bba2" transform="matrix(0.6969511761391957 0 0 0.6969511761391958 8.557498954224064 31.123114210504596)" d="M 782.68189140185 324.969574398 L 782.68189140185 377.869574398 C 782.68189140185 386.669574398 789.78189140185 393.769574398 798.58189140185 393.769574398 L 798.58189140185 340.869574398 C 798.58189140185 332.069574398 791.48189140185 324.969574398 782.68189140185 324.969574398 Z"/><path fill="#87bba2" transform="matrix(0.6969511761391957 0 0 0.6969511761391958 8.557498954224064 31.123114210504596)" d="M 839.68189140185 341.869574398 L 839.68189140185 361.069574398 C 839.68189140185 369.869574398 846.78189140185 376.969574398 855.58189140185 376.969574398 L 855.58189140185 357.769574398 C 855.58189140185 348.969574398 848.48189140185 341.869574398 839.68189140185 341.869574398 Z"/><path fill="#87bba2" transform="matrix(0.6969511761391957 0 0 0.6969511761391958 8.557498954224064 31.123114210504596)" d="M 668.68189140185 299.769574398 L 668.68189140185 403.269574398 C 668.68189140185 412.069574398 675.78189140185 419.169574398 684.58189140185 419.169574398 L 684.58189140185 315.569574398 C 684.58189140185 306.869574398 677.48189140185 299.769574398 668.68189140185 299.769574398 Z"/><path fill="#87bba2" transform="matrix(0.6969511761391957 0 0 0.6969511761391958 8.557498954224064 31.123114210504596)" d="M 583.28189140185 308.169574398 L 583.28189140185 394.769574398 C 583.28189140185 403.569574398 590.38189140185 410.669574398 599.18189140185 410.669574398 L 599.18189140185 324.069574398 C 599.08189140185 315.269574398 591.98189140185 308.169574398 583.28189140185 308.169574398 Z"/><path fill="#87bba2" transform="matrix(0.6969511761391957 0 0 0.6969511761391958 8.557498954224064 31.123114210504596)" d="M 640.18189140185 282.869574398 L 640.18189140185 419.969574398 C 640.18189140185 428.769574398 647.28189140185 435.869574398 656.08189140185 435.869574398 L 656.08189140185 298.769574398 C 656.08189140185 289.969574398 648.98189140185 282.869574398 640.18189140185 282.869574398 Z"/><path fill="#87bba2" transform="matrix(0.6969511761391957 0 0 0.6969511761391958 8.557498954224064 31.123114210504596)" d="M 611.68189140185 324.969574398 L 611.68189140185 377.869574398 C 611.68189140185 386.669574398 618.78189140185 393.769574398 627.58189140185 393.769574398 L 627.58189140185 340.869574398 C 627.58189140185 332.069574398 620.48189140185 324.969574398 611.68189140185 324.969574398 Z"/><path fill="#87bba2" transform="matrix(0.6969511761391957 0 0 0.6969511761391958 8.557498954224064 31.123114210504596)" d="M 554.78189140185 341.869574398 L 554.78189140185 361.069574398 C 554.78189140185 369.869574398 561.88189140185 376.969574398 570.68189140185 376.969574398 L 570.68189140185 357.769574398 C 570.68189140185 348.969574398 563.48189140185 341.869574398 554.78189140185 341.869574398 Z"/><path fill="#55828b" transform="matrix(0.6969511761391957 0 0 0.6969511761391958 8.557498954224064 31.123114210504596)" d="M 699.08189140185 559.169574398 C 679.28189140185 559.169574398 670.58189140185 551.469574398 664.88189140185 546.469574398 C 663.58189140185 545.369574398 661.58189140185 543.569574398 660.98189140185 543.569574398 L 479.08189140185 543.569574398 C 469.78189140185 543.569574398 467.28189140185 535.569574398 467.18189140185 531.269574398 L 467.18189140185 528.969574398 L 660.98189140185 528.969574398 C 666.98189140185 528.969574398 670.98189140185 532.469574398 674.48189140185 535.569574398 C 679.28189140185 539.869574398 684.78189140185 544.669574398 699.08189140185 544.669574398 L 711.28189140185 544.669574398 C 725.58189140185 544.669574398 731.08189140185 539.869574398 735.88189140185 535.569574398 C 739.38189140185 532.469574398 743.38189140185 528.969574398 749.38189140185 528.969574398 L 943.08189140185 528.969574398 L 943.08189140185 531.169574398 C 943.08189140185 531.369574398 943.08189140185 537.069574398 939.58189140185 540.669574398 C 937.68189140185 542.569574398 935.28189140185 543.569574398 932.28189140185 543.569574398 L 749.28189140185 543.569574398 C 748.68189140185 543.669574398 746.68189140185 545.369574398 745.38189140185 546.469574398 C 739.68189140185 551.569574398 730.98189140185 559.169574398 711.18189140185 559.169574398 L 699.08189140185 559.169574398 Z"/><path fill="#55828b" transform="matrix(0.6969511761391957 0 0 0.6969511761391958 8.557498954224064 31.123114210504596)" d="M 715.28189140185 528.869574398 C 715.28189140185 528.869574398 779.98189140185 504.369574398 922.98189140185 482.369574398 L 931.38189140185 501.169574398 C 931.38189140185 501.169574398 795.38189140185 510.169574398 715.28189140185 528.869574398 Z"/><path fill="#55828b" transform="matrix(0.6969511761391957 0 0 0.6969511761391958 8.557498954224064 31.123114210504596)" d="M 711.38189140185 525.169574398 C 711.38189140185 525.169574398 779.28189140185 487.469574398 903.78189140185 445.869574398 L 913.18189140185 461.669574398 C 913.08189140185 461.669574398 812.98189140185 486.169574398 711.38189140185 525.169574398 Z"/><path fill="#55828b" transform="matrix(0.6969511761391957 0 0 0.6969511761391958 8.557498954224064 31.123114210504596)" d="M 707.98189140185 524.169574398 C 707.98189140185 524.169574398 766.38189140185 468.069574398 881.38189140185 409.069574398 L 891.08189140185 424.269574398 C 891.08189140185 424.169574398 803.48189140185 459.969574398 707.98189140185 524.169574398 Z"/><path fill="#55828b" transform="matrix(0.6969511761391957 0 0 0.6969511761391958 8.557498954224064 31.123114210504596)" d="M 695.08189140185 528.869574398 C 695.08189140185 528.869574398 630.38189140185 504.369574398 487.38189140185 482.369574398 L 478.98189140185 501.169574398 C 478.88189140185 501.169574398 614.98189140185 510.169574398 695.08189140185 528.869574398 Z"/><path fill="#55828b" transform="matrix(0.6969511761391957 0 0 0.6969511761391958 8.557498954224064 31.123114210504596)" d="M 698.98189140185 525.169574398 C 698.98189140185 525.169574398 631.08189140185 487.469574398 506.58189140185 445.869574398 L 497.18189140185 461.669574398 C 497.18189140185 461.669574398 597.28189140185 486.169574398 698.98189140185 525.169574398 Z"/><path fill="#55828b" transform="matrix(0.6969511761391957 0 0 0.6969511761391958 8.557498954224064 31.123114210504596)" d="M 702.28189140185 524.169574398 C 702.28189140185 524.169574398 643.88189140185 468.069574398 528.88189140185 409.069574398 L 519.18189140185 424.269574398 C 519.28189140185 424.169574398 606.78189140185 459.969574398 702.28189140185 524.169574398 Z"/><path id="text" fill="#c9e4ca" transform="matrix(1.4893121904192015 0 0 1.4893121904192017 -4.467936571257605 509.7941790498987)" d="M 104.46763392857 69.28525223214 L 112.67075892857 66.28525223214 L 112.67075892857 15.33212723214 L 103.85825892857 12.19150223214 L 104.70200892857 8.39462723214 L 122.56138392857 8.39462723214 C 129.74888392857 8.39462723214 135.59263392857 8.70712723214 140.09263392857 9.33212723214 C 144.59263392857 9.95712723214 148.22544642857 11.37118973214 150.99107142857 13.57431473214 C 153.75669642857 15.77743973214 155.13950892857 19.11337723214 155.13950892857 23.58212723214 C 155.13950892857 26.39462723214 154.42857142857 28.83212723214 153.00669642857 30.89462723214 C 151.58482142857 32.95712723214 149.71763392857 34.61337723214 147.40513392857 35.86337723214 C 145.09263392857 37.11337723214 142.57700892857 37.97275223214 139.85825892857 38.44150223214 C 143.23325892857 38.81650223214 146.30357142857 39.68368973214 149.06919642857 41.04306473214 C 151.83482142857 42.40243973214 154.03794642857 44.23837723214 155.67857142857 46.55087723214 C 157.31919642857 48.86337723214 158.13950892857 51.58212723214 158.13950892857 54.70712723214 C 158.13950892857 59.58212723214 156.92075892857 63.37118973214 154.48325892857 66.07431473214 C 152.04575892857 68.77743973214 148.53013392857 70.65243973214 143.93638392857 71.69931473214 C 139.34263392857 72.74618973214 133.43638392857 73.26962723214 126.21763392857 73.26962723214 L 103.71763392857 73.26962723214 L 104.46763392857 69.28525223214 Z M 137.72544642857 15.49618973214 C 134.33482142857 13.73056473214 130.04575892857 12.59775223214 124.85825892857 12.09775223214 L 124.85825892857 69.47275223214 C 128.85825892857 68.91025223214 132.30357142857 68.16806473214 135.19419642857 67.24618973214 C 138.08482142857 66.32431473214 140.49107142857 64.86337723214 142.41294642857 62.86337723214 C 144.33482142857 60.86337723214 145.29575892857 58.19150223214 145.29575892857 54.84775223214 C 145.29575892857 50.87900223214 143.87388392857 47.74618973214 141.03013392857 45.44931473214 C 138.18638392857 43.15243973214 134.40513392857 41.42587723214 129.68638392857 40.26962723214 L 130.10825892857 37.50400223214 C 134.20200892857 36.37900223214 137.34263392857 34.65243973214 139.53013392857 32.32431473214 C 141.71763392857 29.99618973214 142.81138392857 27.22275223214 142.81138392857 24.00400223214 C 142.81138392857 20.09775223214 141.11607142857 17.26181473214 137.72544642857 15.49618973214 Z M 167.93638392857 40.19931473214 C 169.81138392857 36.40243973214 172.43638392857 33.34775223214 175.81138392857 31.03525223214 C 179.18638392857 28.72275223214 182.99888392857 27.56650223214 187.24888392857 27.56650223214 C 191.37388392857 27.56650223214 195.07700892857 28.37118973214 198.35825892857 29.98056473214 C 201.63950892857 31.58993973214 204.24888392857 34.05087723214 206.18638392857 37.36337723214 C 208.12388392857 40.67587723214 209.09263392857 44.80087723214 209.09263392857 49.73837723214 C 209.09263392857 54.01962723214 208.13950892857 58.05868973214 206.23325892857 61.85556473214 C 204.32700892857 65.65243973214 201.70200892857 68.69931473214 198.35825892857 70.99618973214 C 195.01450892857 73.29306473214 191.31138392857 74.44150223214 187.24888392857 74.44150223214 C 183.03013392857 74.44150223214 179.25669642857 73.64462723214 175.92857142857 72.05087723214 C 172.60044642857 70.45712723214 169.96763392857 68.01181473214 168.03013392857 64.71493973214 C 166.09263392857 61.41806473214 165.12388392857 57.28525223214 165.12388392857 52.31650223214 C 165.12388392857 48.03525223214 166.06138392857 43.99618973214 167.93638392857 40.19931473214 Z M 193.43638392857 67.48056473214 C 194.46763392857 67.15243973214 195.28013392857 66.66025223214 195.87388392857 66.00400223214 C 196.53013392857 65.19150223214 197.04575892857 63.74618973214 197.42075892857 61.66806473214 C 197.79575892857 59.58993973214 197.98325892857 57.56650223214 197.98325892857 55.59775223214 C 197.98325892857 51.25400223214 197.37388392857 47.44931473214 196.15513392857 44.18368973214 C 194.93638392857 40.91806473214 193.25669642857 38.41025223214 191.11607142857 36.66025223214 C 188.97544642857 34.91025223214 186.56138392857 34.03525223214 183.87388392857 34.03525223214 C 181.31138392857 34.03525223214 179.45200892857 34.67587723214 178.29575892857 35.95712723214 C 177.70200892857 36.73837723214 177.20982142857 38.16806473214 176.81919642857 40.24618973214 C 176.42857142857 42.32431473214 176.23325892857 44.41025223214 176.23325892857 46.50400223214 C 176.23325892857 50.37900223214 176.75669642857 53.94150223214 177.80357142857 57.19150223214 C 178.85044642857 60.44150223214 180.42075892857 63.05087723214 182.51450892857 65.01962723214 C 184.60825892857 66.98837723214 187.12388392857 67.97275223214 190.06138392857 67.97275223214 C 191.28013392857 67.97275223214 192.40513392857 67.80868973214 193.43638392857 67.48056473214 Z M 217.95200892857 40.19931473214 C 219.82700892857 36.40243973214 222.45200892857 33.34775223214 225.82700892857 31.03525223214 C 229.20200892857 28.72275223214 233.01450892857 27.56650223214 237.26450892857 27.56650223214 C 241.38950892857 27.56650223214 245.09263392857 28.37118973214 248.37388392857 29.98056473214 C 251.65513392857 31.58993973214 254.26450892857 34.05087723214 256.20200892857 37.36337723214 C 258.13950892857 40.67587723214 259.10825892857 44.80087723214 259.10825892857 49.73837723214 C 259.10825892857 54.01962723214 258.15513392857 58.05868973214 256.24888392857 61.85556473214 C 254.34263392857 65.65243973214 251.71763392857 68.69931473214 248.37388392857 70.99618973214 C 245.03013392857 73.29306473214 241.32700892857 74.44150223214 237.26450892857 74.44150223214 C 233.04575892857 74.44150223214 229.27232142857 73.64462723214 225.94419642857 72.05087723214 C 222.61607142857 70.45712723214 219.98325892857 68.01181473214 218.04575892857 64.71493973214 C 216.10825892857 61.41806473214 215.13950892857 57.28525223214 215.13950892857 52.31650223214 C 215.13950892857 48.03525223214 216.07700892857 43.99618973214 217.95200892857 40.19931473214 Z M 243.45200892857 67.48056473214 C 244.48325892857 67.15243973214 245.29575892857 66.66025223214 245.88950892857 66.00400223214 C 246.54575892857 65.19150223214 247.06138392857 63.74618973214 247.43638392857 61.66806473214 C 247.81138392857 59.58993973214 247.99888392857 57.56650223214 247.99888392857 55.59775223214 C 247.99888392857 51.25400223214 247.38950892857 47.44931473214 246.17075892857 44.18368973214 C 244.95200892857 40.91806473214 243.27232142857 38.41025223214 241.13169642857 36.66025223214 C 238.99107142857 34.91025223214 236.57700892857 34.03525223214 233.88950892857 34.03525223214 C 231.32700892857 34.03525223214 229.46763392857 34.67587723214 228.31138392857 35.95712723214 C 227.71763392857 36.73837723214 227.22544642857 38.16806473214 226.83482142857 40.24618973214 C 226.44419642857 42.32431473214 226.24888392857 44.41025223214 226.24888392857 46.50400223214 C 226.24888392857 50.37900223214 226.77232142857 53.94150223214 227.81919642857 57.19150223214 C 228.86607142857 60.44150223214 230.43638392857 63.05087723214 232.53013392857 65.01962723214 C 234.62388392857 66.98837723214 237.13950892857 67.97275223214 240.07700892857 67.97275223214 C 241.29575892857 67.97275223214 242.42075892857 67.80868973214 243.45200892857 67.48056473214 Z M 263.84263392857 9.28525223214 L 264.26450892857 7.08212723214 L 282.12388392857 4.26962723214 L 282.12388392857 67.12900223214 L 289.43638392857 69.84775223214 L 288.63950892857 73.26962723214 L 263.70200892857 73.26962723214 L 264.45200892857 69.56650223214 L 270.78013392857 66.94150223214 L 270.78013392857 13.22275223214 L 263.84263392857 9.28525223214 Z M 311.98325892857 67.45712723214 L 318.63950892857 69.98837723214 L 317.88950892857 73.26962723214 L 298.85825892857 73.26962723214 L 299.42075892857 70.17587723214 L 284.04575892857 47.48837723214 L 298.76450892857 34.08212723214 L 293.23325892857 32.01962723214 L 293.88950892857 28.73837723214 L 314.88950892857 28.73837723214 L 314.13950892857 32.34775223214 L 307.71763392857 34.36337723214 L 295.48325892857 45.05087723214 L 311.98325892857 67.45712723214 Z M 357.21763392857 66.28525223214 L 357.21763392857 15.33212723214 L 348.40513392857 12.28525223214 L 349.24888392857 8.39462723214 L 367.71763392857 8.39462723214 L 400.71763392857 57.98837723214 C 400.18638392857 51.64462723214 399.85044642857 45.31650223214 399.70982142857 39.00400223214 C 399.56919642857 32.69150223214 399.49888392857 24.78525223214 399.49888392857 15.28525223214 L 389.93638392857 12.28525223214 L 390.73325892857 8.39462723214 L 415.85825892857 8.39462723214 L 415.15513392857 12.33212723214 L 407.23325892857 15.37900223214 L 407.23325892857 72.56650223214 L 397.29575892857 74.44150223214 L 363.49888392857 23.01962723214 C 364.12388392857 29.42587723214 364.51450892857 35.83993973214 364.67075892857 42.26181473214 C 364.82700892857 48.68368973214 364.90513392857 56.70712723214 364.90513392857 66.33212723214 L 374.56138392857 69.37900223214 L 373.71763392857 73.26962723214 L 348.45200892857 73.26962723214 L 349.20200892857 69.28525223214 L 357.21763392857 66.28525223214 Z M 423.03013392857 40.19931473214 C 424.90513392857 36.40243973214 427.53013392857 33.34775223214 430.90513392857 31.03525223214 C 434.28013392857 28.72275223214 438.09263392857 27.56650223214 442.34263392857 27.56650223214 C 446.46763392857 27.56650223214 450.17075892857 28.37118973214 453.45200892857 29.98056473214 C 456.73325892857 31.58993973214 459.34263392857 34.05087723214 461.28013392857 37.36337723214 C 463.21763392857 40.67587723214 464.18638392857 44.80087723214 464.18638392857 49.73837723214 C 464.18638392857 54.01962723214 463.23325892857 58.05868973214 461.32700892857 61.85556473214 C 459.42075892857 65.65243973214 456.79575892857 68.69931473214 453.45200892857 70.99618973214 C 450.10825892857 73.29306473214 446.40513392857 74.44150223214 442.34263392857 74.44150223214 C 438.12388392857 74.44150223214 434.35044642857 73.64462723214 431.02232142857 72.05087723214 C 427.69419642857 70.45712723214 425.06138392857 68.01181473214 423.12388392857 64.71493973214 C 421.18638392857 61.41806473214 420.21763392857 57.28525223214 420.21763392857 52.31650223214 C 420.21763392857 48.03525223214 421.15513392857 43.99618973214 423.03013392857 40.19931473214 Z M 448.53013392857 67.48056473214 C 449.56138392857 67.15243973214 450.37388392857 66.66025223214 450.96763392857 66.00400223214 C 451.62388392857 65.19150223214 452.13950892857 63.74618973214 452.51450892857 61.66806473214 C 452.88950892857 59.58993973214 453.07700892857 57.56650223214 453.07700892857 55.59775223214 C 453.07700892857 51.25400223214 452.46763392857 47.44931473214 451.24888392857 44.18368973214 C 450.03013392857 40.91806473214 448.35044642857 38.41025223214 446.20982142857 36.66025223214 C 444.06919642857 34.91025223214 441.65513392857 34.03525223214 438.96763392857 34.03525223214 C 436.40513392857 34.03525223214 434.54575892857 34.67587723214 433.38950892857 35.95712723214 C 432.79575892857 36.73837723214 432.30357142857 38.16806473214 431.91294642857 40.24618973214 C 431.52232142857 42.32431473214 431.32700892857 44.41025223214 431.32700892857 46.50400223214 C 431.32700892857 50.37900223214 431.85044642857 53.94150223214 432.89732142857 57.19150223214 C 433.94419642857 60.44150223214 435.51450892857 63.05087723214 437.60825892857 65.01962723214 C 439.70200892857 66.98837723214 442.21763392857 67.97275223214 445.15513392857 67.97275223214 C 446.37388392857 67.97275223214 447.49888392857 67.80868973214 448.53013392857 67.48056473214 Z M 473.04575892857 40.19931473214 C 474.92075892857 36.40243973214 477.54575892857 33.34775223214 480.92075892857 31.03525223214 C 484.29575892857 28.72275223214 488.10825892857 27.56650223214 492.35825892857 27.56650223214 C 496.48325892857 27.56650223214 500.18638392857 28.37118973214 503.46763392857 29.98056473214 C 506.74888392857 31.58993973214 509.35825892857 34.05087723214 511.29575892857 37.36337723214 C 513.23325892857 40.67587723214 514.20200892857 44.80087723214 514.20200892857 49.73837723214 C 514.20200892857 54.01962723214 513.24888392857 58.05868973214 511.34263392857 61.85556473214 C 509.43638392857 65.65243973214 506.81138392857 68.69931473214 503.46763392857 70.99618973214 C 500.12388392857 73.29306473214 496.42075892857 74.44150223214 492.35825892857 74.44150223214 C 488.13950892857 74.44150223214 484.36607142857 73.64462723214 481.03794642857 72.05087723214 C 477.70982142857 70.45712723214 475.07700892857 68.01181473214 473.13950892857 64.71493973214 C 471.20200892857 61.41806473214 470.23325892857 57.28525223214 470.23325892857 52.31650223214 C 470.23325892857 48.03525223214 471.17075892857 43.99618973214 473.04575892857 40.19931473214 Z M 498.54575892857 67.48056473214 C 499.57700892857 67.15243973214 500.38950892857 66.66025223214 500.98325892857 66.00400223214 C 501.63950892857 65.19150223214 502.15513392857 63.74618973214 502.53013392857 61.66806473214 C 502.90513392857 59.58993973214 503.09263392857 57.56650223214 503.09263392857 55.59775223214 C 503.09263392857 51.25400223214 502.48325892857 47.44931473214 501.26450892857 44.18368973214 C 500.04575892857 40.91806473214 498.36607142857 38.41025223214 496.22544642857 36.66025223214 C 494.08482142857 34.91025223214 491.67075892857 34.03525223214 488.98325892857 34.03525223214 C 486.42075892857 34.03525223214 484.56138392857 34.67587723214 483.40513392857 35.95712723214 C 482.81138392857 36.73837723214 482.31919642857 38.16806473214 481.92857142857 40.24618973214 C 481.53794642857 42.32431473214 481.34263392857 44.41025223214 481.34263392857 46.50400223214 C 481.34263392857 50.37900223214 481.86607142857 53.94150223214 482.91294642857 57.19150223214 C 483.95982142857 60.44150223214 485.53013392857 63.05087723214 487.62388392857 65.01962723214 C 489.71763392857 66.98837723214 492.23325892857 67.97275223214 495.17075892857 67.97275223214 C 496.38950892857 67.97275223214 497.51450892857 67.80868973214 498.54575892857 67.48056473214 Z M 518.93638392857 9.28525223214 L 519.35825892857 7.08212723214 L 537.21763392857 4.26962723214 L 537.21763392857 67.12900223214 L 544.53013392857 69.84775223214 L 543.73325892857 73.26962723214 L 518.79575892857 73.26962723214 L 519.54575892857 69.56650223214 L 525.87388392857 66.94150223214 L 525.87388392857 13.22275223214 L 518.93638392857 9.28525223214 Z M 567.07700892857 67.45712723214 L 573.73325892857 69.98837723214 L 572.98325892857 73.26962723214 L 553.95200892857 73.26962723214 L 554.51450892857 70.17587723214 L 539.13950892857 47.48837723214 L 553.85825892857 34.08212723214 L 548.32700892857 32.01962723214 L 548.98325892857 28.73837723214 L 569.98325892857 28.73837723214 L 569.23325892857 32.34775223214 L 562.81138392857 34.36337723214 L 550.57700892857 45.05087723214 L 567.07700892857 67.45712723214 Z"/><path id="text" fill="#87bba2" transform="matrix(0.7446560952096007 0 0 0.7446560952096009 -4.003271167846814 660.6136597852466)" d="M 331.13089285714 144.90725446429 C 327.77089285714 143.37125446429 325.13089285714 141.22725446429 323.21089285714 138.47525446429 C 321.29089285714 135.72325446429 320.26689285714 132.65125446429 320.13889285714 129.25925446429 L 327.24289285714 129.25925446429 C 327.56289285714 132.52325446429 329.00289285714 135.38725446429 331.56289285714 137.85125446429 C 334.12289285714 140.31525446429 337.86689285714 141.54725446429 342.79489285714 141.54725446429 C 347.33889285714 141.54725446429 350.93889285714 140.37925446429 353.59489285714 138.04325446429 C 356.25089285714 135.70725446429 357.57889285714 132.74725446429 357.57889285714 129.16325446429 C 357.57889285714 126.28325446429 356.84289285714 123.96325446429 355.37089285714 122.20325446429 C 353.89889285714 120.44325446429 352.07489285714 119.13125446429 349.89889285714 118.26725446429 C 347.72289285714 117.40325446429 344.71489285714 116.45925446429 340.87489285714 115.43525446429 C 336.39489285714 114.21925446429 332.84289285714 113.03525446429 330.21889285714 111.88325446429 C 327.59489285714 110.73125446429 325.35489285714 108.93925446429 323.49889285714 106.50725446429 C 321.64289285714 104.07525446429 320.71489285714 100.77925446429 320.71489285714 96.61925446429 C 320.71489285714 93.16325446429 321.61089285714 90.07525446429 323.40289285714 87.35525446429 C 325.19489285714 84.63525446429 327.72289285714 82.50725446429 330.98689285714 80.97125446429 C 334.25089285714 79.43525446429 337.99489285714 78.66725446429 342.21889285714 78.66725446429 C 348.42689285714 78.66725446429 353.43489285714 80.18725446429 357.24289285714 83.22725446429 C 361.05089285714 86.26725446429 363.24289285714 90.18725446429 363.81889285714 94.98725446429 L 356.52289285714 94.98725446429 C 356.07489285714 92.23525446429 354.57089285714 89.78725446429 352.01089285714 87.64325446429 C 349.45089285714 85.49925446429 345.99489285714 84.42725446429 341.64289285714 84.42725446429 C 337.61089285714 84.42725446429 334.25089285714 85.49925446429 331.56289285714 87.64325446429 C 328.87489285714 89.78725446429 327.53089285714 92.71525446429 327.53089285714 96.42725446429 C 327.53089285714 99.24325446429 328.26689285714 101.51525446429 329.73889285714 103.24325446429 C 331.21089285714 104.97125446429 333.05089285714 106.28325446429 335.25889285714 107.17925446429 C 337.46689285714 108.07525446429 340.45889285714 109.03525446429 344.23489285714 110.05925446429 C 348.58689285714 111.27525446429 352.10689285714 112.47525446429 354.79489285714 113.65925446429 C 357.48289285714 114.84325446429 359.75489285714 116.65125446429 361.61089285714 119.08325446429 C 363.46689285714 121.51525446429 364.39489285714 124.77925446429 364.39489285714 128.87525446429 C 364.39489285714 132.01125446429 363.56289285714 134.98725446429 361.89889285714 137.80325446429 C 360.23489285714 140.61925446429 357.77089285714 142.89125446429 354.50689285714 144.61925446429 C 351.24289285714 146.34725446429 347.33889285714 147.21125446429 342.79489285714 147.21125446429 C 338.37889285714 147.21125446429 334.49089285714 146.44325446429 331.13089285714 144.90725446429 Z M 377.25889285714 82.79525446429 C 376.29889285714 81.83525446429 375.81889285714 80.65125446429 375.81889285714 79.24325446429 C 375.81889285714 77.83525446429 376.29889285714 76.66725446429 377.25889285714 75.73925446429 C 378.21889285714 74.81125446429 379.37089285714 74.34725446429 380.71489285714 74.34725446429 C 382.05889285714 74.34725446429 383.21089285714 74.81125446429 384.17089285714 75.73925446429 C 385.13089285714 76.66725446429 385.61089285714 77.83525446429 385.61089285714 79.24325446429 C 385.61089285714 80.65125446429 385.13089285714 81.83525446429 384.17089285714 82.79525446429 C 383.21089285714 83.75525446429 382.05889285714 84.23525446429 380.71489285714 84.23525446429 C 379.37089285714 84.23525446429 378.21889285714 83.75525446429 377.25889285714 82.79525446429 Z M 384.07489285714 94.12325446429 L 384.07489285714 146.53925446429 L 377.35489285714 146.53925446429 L 377.35489285714 94.12325446429 L 384.07489285714 94.12325446429 Z M 413.88289285714 96.85925446429 C 417.49889285714 94.52325446429 421.80289285714 93.35525446429 426.79489285714 93.35525446429 C 431.53089285714 93.35525446429 435.80289285714 94.45925446429 439.61089285714 96.66725446429 C 443.41889285714 98.87525446429 446.39489285714 102.01125446429 448.53889285714 106.07525446429 C 450.68289285714 110.13925446429 451.75489285714 114.85925446429 451.75489285714 120.23525446429 C 451.75489285714 125.61125446429 450.68289285714 130.34725446429 448.53889285714 134.44325446429 C 446.39489285714 138.53925446429 443.41889285714 141.70725446429 439.61089285714 143.94725446429 C 435.80289285714 146.18725446429 431.53089285714 147.30725446429 426.79489285714 147.30725446429 C 421.86689285714 147.30725446429 417.57889285714 146.13925446429 413.93089285714 143.80325446429 C 410.28289285714 141.46725446429 407.62689285714 138.53925446429 405.96289285714 135.01925446429 L 405.96289285714 171.30725446429 L 399.33889285714 171.30725446429 L 399.33889285714 94.12325446429 L 405.96289285714 94.12325446429 L 405.96289285714 105.64325446429 C 407.62689285714 102.12325446429 410.26689285714 99.19525446429 413.88289285714 96.85925446429 Z M 442.39489285714 108.95525446429 C 440.69889285714 105.78725446429 438.37889285714 103.37125446429 435.43489285714 101.70725446429 C 432.49089285714 100.04325446429 429.16289285714 99.21125446429 425.45089285714 99.21125446429 C 421.86689285714 99.21125446429 418.58689285714 100.07525446429 415.61089285714 101.80325446429 C 412.63489285714 103.53125446429 410.28289285714 105.99525446429 408.55489285714 109.19525446429 C 406.82689285714 112.39525446429 405.96289285714 116.10725446429 405.96289285714 120.33125446429 C 405.96289285714 124.55525446429 406.82689285714 128.26725446429 408.55489285714 131.46725446429 C 410.28289285714 134.66725446429 412.63489285714 137.13125446429 415.61089285714 138.85925446429 C 418.58689285714 140.58725446429 421.86689285714 141.45125446429 425.45089285714 141.45125446429 C 429.16289285714 141.45125446429 432.49089285714 140.60325446429 435.43489285714 138.90725446429 C 438.37889285714 137.21125446429 440.69889285714 134.74725446429 442.39489285714 131.51525446429 C 444.09089285714 128.28325446429 444.93889285714 124.52325446429 444.93889285714 120.23525446429 C 444.93889285714 115.88325446429 444.09089285714 112.12325446429 442.39489285714 108.95525446429 Z M 470.28289285714 135.40325446429 L 460.29889285714 160.55525446429 L 455.69089285714 160.55525446429 L 462.79489285714 135.40325446429 L 470.28289285714 135.40325446429 Z M 542.76289285714 146.53925446429 L 526.15489285714 118.50725446429 L 513.77089285714 118.50725446429 L 513.77089285714 146.53925446429 L 507.05089285714 146.53925446429 L 507.05089285714 79.43525446429 L 527.21089285714 79.43525446429 C 534.69889285714 79.43525446429 540.37889285714 81.22725446429 544.25089285714 84.81125446429 C 548.12289285714 88.39525446429 550.05889285714 93.09925446429 550.05889285714 98.92325446429 C 550.05889285714 103.78725446429 548.66689285714 107.93125446429 545.88289285714 111.35525446429 C 543.09889285714 114.77925446429 538.98689285714 117.00325446429 533.54689285714 118.02725446429 L 550.82689285714 146.53925446429 L 542.76289285714 146.53925446429 Z M 513.77089285714 113.03525446429 L 527.30689285714 113.03525446429 C 532.55489285714 113.03525446429 536.50689285714 111.75525446429 539.16289285714 109.19525446429 C 541.81889285714 106.63525446429 543.14689285714 103.21125446429 543.14689285714 98.92325446429 C 543.14689285714 94.50725446429 541.86689285714 91.09925446429 539.30689285714 88.69925446429 C 536.74689285714 86.29925446429 532.71489285714 85.09925446429 527.21089285714 85.09925446429 L 513.77089285714 85.09925446429 L 513.77089285714 113.03525446429 Z M 610.63489285714 122.92325446429 L 567.14689285714 122.92325446429 C 567.33889285714 126.89125446429 568.29889285714 130.28325446429 570.02689285714 133.09925446429 C 571.75489285714 135.91525446429 574.02689285714 138.04325446429 576.84289285714 139.48325446429 C 579.65889285714 140.92325446429 582.73089285714 141.64325446429 586.05889285714 141.64325446429 C 590.41089285714 141.64325446429 594.07489285714 140.58725446429 597.05089285714 138.47525446429 C 600.02689285714 136.36325446429 601.99489285714 133.51525446429 602.95489285714 129.93125446429 L 610.05889285714 129.93125446429 C 608.77889285714 135.05125446429 606.04289285714 139.22725446429 601.85089285714 142.45925446429 C 597.65889285714 145.69125446429 592.39489285714 147.30725446429 586.05889285714 147.30725446429 C 581.13089285714 147.30725446429 576.71489285714 146.20325446429 572.81089285714 143.99525446429 C 568.90689285714 141.78725446429 565.85089285714 138.65125446429 563.64289285714 134.58725446429 C 561.43489285714 130.52325446429 560.33089285714 125.77125446429 560.33089285714 120.33125446429 C 560.33089285714 114.89125446429 561.41889285714 110.12325446429 563.59489285714 106.02725446429 C 565.77089285714 101.93125446429 568.81089285714 98.79525446429 572.71489285714 96.61925446429 C 576.61889285714 94.44325446429 581.06689285714 93.35525446429 586.05889285714 93.35525446429 C 591.05089285714 93.35525446429 595.41889285714 94.44325446429 599.16289285714 96.61925446429 C 602.90689285714 98.79525446429 605.78689285714 101.72325446429 607.80289285714 105.40325446429 C 609.81889285714 109.08325446429 610.82689285714 113.16325446429 610.82689285714 117.64325446429 C 610.82689285714 119.94725446429 610.76289285714 121.70725446429 610.63489285714 122.92325446429 Z M 601.65889285714 107.46725446429 C 600.02689285714 104.71525446429 597.80289285714 102.63525446429 594.98689285714 101.22725446429 C 592.17089285714 99.81925446429 589.09889285714 99.11525446429 585.77089285714 99.11525446429 C 580.77889285714 99.11525446429 576.52289285714 100.71525446429 573.00289285714 103.91525446429 C 569.48289285714 107.11525446429 567.53089285714 111.62725446429 567.14689285714 117.45125446429 L 604.01089285714 117.45125446429 C 604.07489285714 113.54725446429 603.29089285714 110.21925446429 601.65889285714 107.46725446429 Z M 623.25889285714 106.07525446429 C 625.40289285714 102.01125446429 628.37889285714 98.87525446429 632.18689285714 96.66725446429 C 635.99489285714 94.45925446429 640.29889285714 93.35525446429 645.09889285714 93.35525446429 C 650.09089285714 93.35525446429 654.39489285714 94.50725446429 658.01089285714 96.81125446429 C 661.62689285714 99.11525446429 664.23489285714 102.05925446429 665.83489285714 105.64325446429 L 665.83489285714 94.12325446429 L 672.55489285714 94.12325446429 L 672.55489285714 146.53925446429 L 665.83489285714 146.53925446429 L 665.83489285714 134.92325446429 C 664.17089285714 138.50725446429 661.53089285714 141.46725446429 657.91489285714 143.80325446429 C 654.29889285714 146.13925446429 649.99489285714 147.30725446429 645.00289285714 147.30725446429 C 640.26689285714 147.30725446429 635.99489285714 146.18725446429 632.18689285714 143.94725446429 C 628.37889285714 141.70725446429 625.40289285714 138.53925446429 623.25889285714 134.44325446429 C 621.11489285714 130.34725446429 620.04289285714 125.61125446429 620.04289285714 120.23525446429 C 620.04289285714 114.85925446429 621.11489285714 110.13925446429 623.25889285714 106.07525446429 Z M 663.24289285714 109.19525446429 C 661.51489285714 105.99525446429 659.16289285714 103.53125446429 656.18689285714 101.80325446429 C 653.21089285714 100.07525446429 649.93089285714 99.21125446429 646.34689285714 99.21125446429 C 642.63489285714 99.21125446429 639.30689285714 100.04325446429 636.36289285714 101.70725446429 C 633.41889285714 103.37125446429 631.09889285714 105.78725446429 629.40289285714 108.95525446429 C 627.70689285714 112.12325446429 626.85889285714 115.88325446429 626.85889285714 120.23525446429 C 626.85889285714 124.52325446429 627.70689285714 128.28325446429 629.40289285714 131.51525446429 C 631.09889285714 134.74725446429 633.41889285714 137.21125446429 636.36289285714 138.90725446429 C 639.30689285714 140.60325446429 642.63489285714 141.45125446429 646.34689285714 141.45125446429 C 649.93089285714 141.45125446429 653.21089285714 140.58725446429 656.18689285714 138.85925446429 C 659.16289285714 137.13125446429 661.51489285714 134.66725446429 663.24289285714 131.46725446429 C 664.97089285714 128.26725446429 665.83489285714 124.55525446429 665.83489285714 120.33125446429 C 665.83489285714 116.10725446429 664.97089285714 112.39525446429 663.24289285714 109.19525446429 Z M 688.10689285714 106.07525446429 C 690.28289285714 102.01125446429 693.27489285714 98.87525446429 697.08289285714 96.66725446429 C 700.89089285714 94.45925446429 705.19489285714 93.35525446429 709.99489285714 93.35525446429 C 714.60289285714 93.35525446429 718.76289285714 94.47525446429 722.47489285714 96.71525446429 C 726.18689285714 98.95525446429 728.90689285714 101.86725446429 730.63489285714 105.45125446429 L 730.63489285714 75.49925446429 L 737.35489285714 75.49925446429 L 737.35489285714 146.53925446429 L 730.63489285714 146.53925446429 L 730.63489285714 134.82725446429 C 729.03489285714 138.47525446429 726.41089285714 141.46725446429 722.76289285714 143.80325446429 C 719.11489285714 146.13925446429 714.82689285714 147.30725446429 709.89889285714 147.30725446429 C 705.09889285714 147.30725446429 700.79489285714 146.18725446429 696.98689285714 143.94725446429 C 693.17889285714 141.70725446429 690.20289285714 138.53925446429 688.05889285714 134.44325446429 C 685.91489285714 130.34725446429 684.84289285714 125.61125446429 684.84289285714 120.23525446429 C 684.84289285714 114.85925446429 685.93089285714 110.13925446429 688.10689285714 106.07525446429 Z M 728.04289285714 109.19525446429 C 726.31489285714 105.99525446429 723.96289285714 103.53125446429 720.98689285714 101.80325446429 C 718.01089285714 100.07525446429 714.73089285714 99.21125446429 711.14689285714 99.21125446429 C 707.43489285714 99.21125446429 704.10689285714 100.04325446429 701.16289285714 101.70725446429 C 698.21889285714 103.37125446429 695.89889285714 105.78725446429 694.20289285714 108.95525446429 C 692.50689285714 112.12325446429 691.65889285714 115.88325446429 691.65889285714 120.23525446429 C 691.65889285714 124.52325446429 692.50689285714 128.28325446429 694.20289285714 131.51525446429 C 695.89889285714 134.74725446429 698.21889285714 137.21125446429 701.16289285714 138.90725446429 C 704.10689285714 140.60325446429 707.43489285714 141.45125446429 711.14689285714 141.45125446429 C 714.73089285714 141.45125446429 718.01089285714 140.58725446429 720.98689285714 138.85925446429 C 723.96289285714 137.13125446429 726.31489285714 134.66725446429 728.04289285714 131.46725446429 C 729.77089285714 128.26725446429 730.63489285714 124.55525446429 730.63489285714 120.33125446429 C 730.63489285714 116.10725446429 729.77089285714 112.39525446429 728.04289285714 109.19525446429 Z M 758.85889285714 135.40325446429 L 748.87489285714 160.55525446429 L 744.26689285714 160.55525446429 L 751.37089285714 135.40325446429 L 758.85889285714 135.40325446429 Z M 831.33889285714 146.53925446429 L 814.73089285714 118.50725446429 L 802.34689285714 118.50725446429 L 802.34689285714 146.53925446429 L 795.62689285714 146.53925446429 L 795.62689285714 79.43525446429 L 815.78689285714 79.43525446429 C 823.27489285714 79.43525446429 828.95489285714 81.22725446429 832.82689285714 84.81125446429 C 836.69889285714 88.39525446429 838.63489285714 93.09925446429 838.63489285714 98.92325446429 C 838.63489285714 103.78725446429 837.24289285714 107.93125446429 834.45889285714 111.35525446429 C 831.67489285714 114.77925446429 827.56289285714 117.00325446429 822.12289285714 118.02725446429 L 839.40289285714 146.53925446429 L 831.33889285714 146.53925446429 Z M 802.34689285714 113.03525446429 L 815.88289285714 113.03525446429 C 821.13089285714 113.03525446429 825.08289285714 111.75525446429 827.73889285714 109.19525446429 C 830.39489285714 106.63525446429 831.72289285714 103.21125446429 831.72289285714 98.92325446429 C 831.72289285714 94.50725446429 830.44289285714 91.09925446429 827.88289285714 88.69925446429 C 825.32289285714 86.29925446429 821.29089285714 85.09925446429 815.78689285714 85.09925446429 L 802.34689285714 85.09925446429 L 802.34689285714 113.03525446429 Z M 899.21089285714 122.92325446429 L 855.72289285714 122.92325446429 C 855.91489285714 126.89125446429 856.87489285714 130.28325446429 858.60289285714 133.09925446429 C 860.33089285714 135.91525446429 862.60289285714 138.04325446429 865.41889285714 139.48325446429 C 868.23489285714 140.92325446429 871.30689285714 141.64325446429 874.63489285714 141.64325446429 C 878.98689285714 141.64325446429 882.65089285714 140.58725446429 885.62689285714 138.47525446429 C 888.60289285714 136.36325446429 890.57089285714 133.51525446429 891.53089285714 129.93125446429 L 898.63489285714 129.93125446429 C 897.35489285714 135.05125446429 894.61889285714 139.22725446429 890.42689285714 142.45925446429 C 886.23489285714 145.69125446429 880.97089285714 147.30725446429 874.63489285714 147.30725446429 C 869.70689285714 147.30725446429 865.29089285714 146.20325446429 861.38689285714 143.99525446429 C 857.48289285714 141.78725446429 854.42689285714 138.65125446429 852.21889285714 134.58725446429 C 850.01089285714 130.52325446429 848.90689285714 125.77125446429 848.90689285714 120.33125446429 C 848.90689285714 114.89125446429 849.99489285714 110.12325446429 852.17089285714 106.02725446429 C 854.34689285714 101.93125446429 857.38689285714 98.79525446429 861.29089285714 96.61925446429 C 865.19489285714 94.44325446429 869.64289285714 93.35525446429 874.63489285714 93.35525446429 C 879.62689285714 93.35525446429 883.99489285714 94.44325446429 887.73889285714 96.61925446429 C 891.48289285714 98.79525446429 894.36289285714 101.72325446429 896.37889285714 105.40325446429 C 898.39489285714 109.08325446429 899.40289285714 113.16325446429 899.40289285714 117.64325446429 C 899.40289285714 119.94725446429 899.33889285714 121.70725446429 899.21089285714 122.92325446429 Z M 890.23489285714 107.46725446429 C 888.60289285714 104.71525446429 886.37889285714 102.63525446429 883.56289285714 101.22725446429 C 880.74689285714 99.81925446429 877.67489285714 99.11525446429 874.34689285714 99.11525446429 C 869.35489285714 99.11525446429 865.09889285714 100.71525446429 861.57889285714 103.91525446429 C 858.05889285714 107.11525446429 856.10689285714 111.62725446429 855.72289285714 117.45125446429 L 892.58689285714 117.45125446429 C 892.65089285714 113.54725446429 891.86689285714 110.21925446429 890.23489285714 107.46725446429 Z M 918.41089285714 75.49925446429 L 918.41089285714 146.53925446429 L 911.69089285714 146.53925446429 L 911.69089285714 75.49925446429 L 918.41089285714 75.49925446429 Z M 933.81889285714 106.07525446429 C 935.96289285714 102.01125446429 938.93889285714 98.87525446429 942.74689285714 96.66725446429 C 946.55489285714 94.45925446429 950.85889285714 93.35525446429 955.65889285714 93.35525446429 C 960.65089285714 93.35525446429 964.95489285714 94.50725446429 968.57089285714 96.81125446429 C 972.18689285714 99.11525446429 974.79489285714 102.05925446429 976.39489285714 105.64325446429 L 976.39489285714 94.12325446429 L 983.11489285714 94.12325446429 L 983.11489285714 146.53925446429 L 976.39489285714 146.53925446429 L 976.39489285714 134.92325446429 C 974.73089285714 138.50725446429 972.09089285714 141.46725446429 968.47489285714 143.80325446429 C 964.85889285714 146.13925446429 960.55489285714 147.30725446429 955.56289285714 147.30725446429 C 950.82689285714 147.30725446429 946.55489285714 146.18725446429 942.74689285714 143.94725446429 C 938.93889285714 141.70725446429 935.96289285714 138.53925446429 933.81889285714 134.44325446429 C 931.67489285714 130.34725446429 930.60289285714 125.61125446429 930.60289285714 120.23525446429 C 930.60289285714 114.85925446429 931.67489285714 110.13925446429 933.81889285714 106.07525446429 Z M 973.80289285714 109.19525446429 C 972.07489285714 105.99525446429 969.72289285714 103.53125446429 966.74689285714 101.80325446429 C 963.77089285714 100.07525446429 960.49089285714 99.21125446429 956.90689285714 99.21125446429 C 953.19489285714 99.21125446429 949.86689285714 100.04325446429 946.92289285714 101.70725446429 C 943.97889285714 103.37125446429 941.65889285714 105.78725446429 939.96289285714 108.95525446429 C 938.26689285714 112.12325446429 937.41889285714 115.88325446429 937.41889285714 120.23525446429 C 937.41889285714 124.52325446429 938.26689285714 128.28325446429 939.96289285714 131.51525446429 C 941.65889285714 134.74725446429 943.97889285714 137.21125446429 946.92289285714 138.90725446429 C 949.86689285714 140.60325446429 953.19489285714 141.45125446429 956.90689285714 141.45125446429 C 960.49089285714 141.45125446429 963.77089285714 140.58725446429 966.74689285714 138.85925446429 C 969.72289285714 137.13125446429 972.07489285714 134.66725446429 973.80289285714 131.46725446429 C 975.53089285714 128.26725446429 976.39489285714 124.55525446429 976.39489285714 120.33125446429 C 976.39489285714 116.10725446429 975.53089285714 112.39525446429 973.80289285714 109.19525446429 Z M 1025.93089285714 146.53925446429 L 1012.39489285714 125.41925446429 L 999.33889285714 146.53925446429 L 992.23489285714 146.53925446429 L 1009.13089285714 120.33125446429 L 992.42689285714 94.12325446429 L 1000.01089285714 94.12325446429 L 1013.35489285714 114.95525446429 L 1026.31489285714 94.12325446429 L 1033.32289285714 94.12325446429 L 1016.61889285714 120.04325446429 L 1033.51489285714 146.53925446429 L 1025.93089285714 146.53925446429 Z"/></svg>